<mxfile host="Electron" modified="2023-10-06T08:29:32.780Z" agent="Mozilla/5.0 (Windows NT 10.0; Win64; x64) AppleWebKit/537.36 (KHTML, like Gecko) draw.io/21.4.0 Chrome/112.0.5615.204 Electron/24.5.1 Safari/537.36" etag="YJlF3TkDWcZUmb3LpWSs" version="21.4.0" type="device">
  <diagram name="Page-1" id="1hm8HmTSw6B5gK0yuC_L">
    <mxGraphModel dx="1500" dy="887" grid="1" gridSize="10" guides="1" tooltips="1" connect="1" arrows="1" fold="1" page="1" pageScale="1" pageWidth="850" pageHeight="1100" math="0" shadow="0">
      <root>
        <mxCell id="0" />
        <mxCell id="1" parent="0" />
        <mxCell id="__wWAyPd4UwDDS3I6Whu-1" value="Bắt đầu" style="ellipse;whiteSpace=wrap;html=1;fontSize=13;" parent="1" vertex="1">
          <mxGeometry x="365" y="60" width="120" height="50" as="geometry" />
        </mxCell>
        <mxCell id="U7LoR9dBJlGIUiCqkhnB-1" value="Thông tin &lt;br&gt;sản phẩm" style="shape=parallelogram;perimeter=parallelogramPerimeter;whiteSpace=wrap;html=1;fixedSize=1;" vertex="1" parent="1">
          <mxGeometry x="360" y="150" width="120" height="60" as="geometry" />
        </mxCell>
        <mxCell id="U7LoR9dBJlGIUiCqkhnB-2" value="Chọn chức năng" style="rhombus;whiteSpace=wrap;html=1;" vertex="1" parent="1">
          <mxGeometry x="365" y="250" width="120" height="60" as="geometry" />
        </mxCell>
        <mxCell id="U7LoR9dBJlGIUiCqkhnB-7" value="Thêm sản phẩm" style="rhombus;whiteSpace=wrap;html=1;" vertex="1" parent="1">
          <mxGeometry x="70" y="350" width="120" height="60" as="geometry" />
        </mxCell>
        <mxCell id="U7LoR9dBJlGIUiCqkhnB-8" value="Sửa sản phẩm" style="rhombus;whiteSpace=wrap;html=1;" vertex="1" parent="1">
          <mxGeometry x="260" y="350" width="120" height="60" as="geometry" />
        </mxCell>
        <mxCell id="U7LoR9dBJlGIUiCqkhnB-9" value="Xóa sản phẩm" style="rhombus;whiteSpace=wrap;html=1;" vertex="1" parent="1">
          <mxGeometry x="460" y="350" width="120" height="60" as="geometry" />
        </mxCell>
        <mxCell id="U7LoR9dBJlGIUiCqkhnB-10" value="Tìm kiếm &lt;br&gt;sản phẩm" style="rhombus;whiteSpace=wrap;html=1;" vertex="1" parent="1">
          <mxGeometry x="660" y="350" width="120" height="60" as="geometry" />
        </mxCell>
        <mxCell id="U7LoR9dBJlGIUiCqkhnB-11" value="Kết thúc" style="ellipse;whiteSpace=wrap;html=1;fontSize=13;" vertex="1" parent="1">
          <mxGeometry x="370" y="810" width="120" height="50" as="geometry" />
        </mxCell>
        <mxCell id="U7LoR9dBJlGIUiCqkhnB-12" value="Thêm thành công" style="rounded=0;whiteSpace=wrap;html=1;" vertex="1" parent="1">
          <mxGeometry x="10" y="450" width="90" height="40" as="geometry" />
        </mxCell>
        <mxCell id="U7LoR9dBJlGIUiCqkhnB-13" value="Thêm thất bại" style="rounded=0;whiteSpace=wrap;html=1;" vertex="1" parent="1">
          <mxGeometry x="140" y="450" width="90" height="40" as="geometry" />
        </mxCell>
        <mxCell id="U7LoR9dBJlGIUiCqkhnB-14" value="Sửa thành công" style="rounded=0;whiteSpace=wrap;html=1;" vertex="1" parent="1">
          <mxGeometry x="200" y="540" width="90" height="40" as="geometry" />
        </mxCell>
        <mxCell id="U7LoR9dBJlGIUiCqkhnB-15" value="Sửa thất bại" style="rounded=0;whiteSpace=wrap;html=1;" vertex="1" parent="1">
          <mxGeometry x="320" y="540" width="90" height="40" as="geometry" />
        </mxCell>
        <mxCell id="U7LoR9dBJlGIUiCqkhnB-16" value="Xóa thành công" style="rounded=0;whiteSpace=wrap;html=1;" vertex="1" parent="1">
          <mxGeometry x="420" y="450" width="90" height="40" as="geometry" />
        </mxCell>
        <mxCell id="U7LoR9dBJlGIUiCqkhnB-17" value="Xóa thất bại" style="rounded=0;whiteSpace=wrap;html=1;" vertex="1" parent="1">
          <mxGeometry x="540" y="450" width="90" height="40" as="geometry" />
        </mxCell>
        <mxCell id="U7LoR9dBJlGIUiCqkhnB-18" value="Tình kiếm thành công" style="rounded=0;whiteSpace=wrap;html=1;" vertex="1" parent="1">
          <mxGeometry x="630" y="520" width="90" height="40" as="geometry" />
        </mxCell>
        <mxCell id="U7LoR9dBJlGIUiCqkhnB-19" value="Tìm kiếm thất bại" style="rounded=0;whiteSpace=wrap;html=1;" vertex="1" parent="1">
          <mxGeometry x="750" y="520" width="90" height="40" as="geometry" />
        </mxCell>
        <mxCell id="U7LoR9dBJlGIUiCqkhnB-20" value="Trả về danh sách" style="rounded=0;whiteSpace=wrap;html=1;" vertex="1" parent="1">
          <mxGeometry x="10" y="540" width="90" height="40" as="geometry" />
        </mxCell>
        <mxCell id="U7LoR9dBJlGIUiCqkhnB-21" value="Trả về danh sách" style="rounded=0;whiteSpace=wrap;html=1;" vertex="1" parent="1">
          <mxGeometry x="200" y="620" width="90" height="40" as="geometry" />
        </mxCell>
        <mxCell id="U7LoR9dBJlGIUiCqkhnB-22" value="Trả về danh sách" style="rounded=0;whiteSpace=wrap;html=1;" vertex="1" parent="1">
          <mxGeometry x="420" y="610" width="90" height="40" as="geometry" />
        </mxCell>
        <mxCell id="U7LoR9dBJlGIUiCqkhnB-23" value="Trả về danh sách" style="rounded=0;whiteSpace=wrap;html=1;" vertex="1" parent="1">
          <mxGeometry x="630" y="610" width="90" height="40" as="geometry" />
        </mxCell>
        <mxCell id="U7LoR9dBJlGIUiCqkhnB-24" value="" style="endArrow=classic;html=1;rounded=0;exitX=0.5;exitY=1;exitDx=0;exitDy=0;entryX=0.535;entryY=-0.012;entryDx=0;entryDy=0;entryPerimeter=0;" edge="1" parent="1" source="__wWAyPd4UwDDS3I6Whu-1" target="U7LoR9dBJlGIUiCqkhnB-1">
          <mxGeometry width="50" height="50" relative="1" as="geometry">
            <mxPoint x="570" y="80" as="sourcePoint" />
            <mxPoint x="620" y="30" as="targetPoint" />
          </mxGeometry>
        </mxCell>
        <mxCell id="U7LoR9dBJlGIUiCqkhnB-25" value="" style="endArrow=classic;html=1;rounded=0;exitX=0.5;exitY=1;exitDx=0;exitDy=0;entryX=0.5;entryY=0;entryDx=0;entryDy=0;" edge="1" parent="1" target="U7LoR9dBJlGIUiCqkhnB-2">
          <mxGeometry width="50" height="50" relative="1" as="geometry">
            <mxPoint x="425" y="200" as="sourcePoint" />
            <mxPoint x="424" y="249" as="targetPoint" />
          </mxGeometry>
        </mxCell>
        <mxCell id="U7LoR9dBJlGIUiCqkhnB-26" value="" style="endArrow=classic;html=1;rounded=0;exitX=0;exitY=0.5;exitDx=0;exitDy=0;entryX=0.5;entryY=0;entryDx=0;entryDy=0;" edge="1" parent="1" source="U7LoR9dBJlGIUiCqkhnB-2" target="U7LoR9dBJlGIUiCqkhnB-7">
          <mxGeometry width="50" height="50" relative="1" as="geometry">
            <mxPoint x="180" y="230" as="sourcePoint" />
            <mxPoint x="230" y="180" as="targetPoint" />
            <Array as="points">
              <mxPoint x="130" y="280" />
            </Array>
          </mxGeometry>
        </mxCell>
        <mxCell id="U7LoR9dBJlGIUiCqkhnB-27" value="" style="endArrow=classic;html=1;rounded=0;exitX=1;exitY=0.5;exitDx=0;exitDy=0;" edge="1" parent="1" source="U7LoR9dBJlGIUiCqkhnB-2" target="U7LoR9dBJlGIUiCqkhnB-10">
          <mxGeometry width="50" height="50" relative="1" as="geometry">
            <mxPoint x="590" y="250" as="sourcePoint" />
            <mxPoint x="640" y="200" as="targetPoint" />
            <Array as="points">
              <mxPoint x="720" y="280" />
            </Array>
          </mxGeometry>
        </mxCell>
        <mxCell id="U7LoR9dBJlGIUiCqkhnB-28" value="" style="endArrow=classic;html=1;rounded=0;exitX=0.348;exitY=0.86;exitDx=0;exitDy=0;entryX=0.5;entryY=0;entryDx=0;entryDy=0;exitPerimeter=0;" edge="1" parent="1" source="U7LoR9dBJlGIUiCqkhnB-2" target="U7LoR9dBJlGIUiCqkhnB-8">
          <mxGeometry width="50" height="50" relative="1" as="geometry">
            <mxPoint x="330" y="350" as="sourcePoint" />
            <mxPoint x="380" y="300" as="targetPoint" />
            <Array as="points">
              <mxPoint x="320" y="300" />
            </Array>
          </mxGeometry>
        </mxCell>
        <mxCell id="U7LoR9dBJlGIUiCqkhnB-29" value="" style="endArrow=classic;html=1;rounded=0;exitX=0.695;exitY=0.833;exitDx=0;exitDy=0;exitPerimeter=0;entryX=0.5;entryY=0;entryDx=0;entryDy=0;" edge="1" parent="1" source="U7LoR9dBJlGIUiCqkhnB-2" target="U7LoR9dBJlGIUiCqkhnB-9">
          <mxGeometry width="50" height="50" relative="1" as="geometry">
            <mxPoint x="530" y="340" as="sourcePoint" />
            <mxPoint x="580" y="290" as="targetPoint" />
            <Array as="points">
              <mxPoint x="520" y="300" />
            </Array>
          </mxGeometry>
        </mxCell>
        <mxCell id="U7LoR9dBJlGIUiCqkhnB-30" value="Thêm" style="text;html=1;strokeColor=none;fillColor=none;align=center;verticalAlign=middle;whiteSpace=wrap;rounded=0;" vertex="1" parent="1">
          <mxGeometry x="155" y="240" width="60" height="30" as="geometry" />
        </mxCell>
        <mxCell id="U7LoR9dBJlGIUiCqkhnB-31" value="Sửa" style="text;html=1;strokeColor=none;fillColor=none;align=center;verticalAlign=middle;whiteSpace=wrap;rounded=0;" vertex="1" parent="1">
          <mxGeometry x="250" y="310" width="60" height="30" as="geometry" />
        </mxCell>
        <mxCell id="U7LoR9dBJlGIUiCqkhnB-32" value="Xóa" style="text;html=1;strokeColor=none;fillColor=none;align=center;verticalAlign=middle;whiteSpace=wrap;rounded=0;" vertex="1" parent="1">
          <mxGeometry x="520" y="310" width="60" height="30" as="geometry" />
        </mxCell>
        <mxCell id="U7LoR9dBJlGIUiCqkhnB-33" value="Tìm kiếm" style="text;html=1;strokeColor=none;fillColor=none;align=center;verticalAlign=middle;whiteSpace=wrap;rounded=0;" vertex="1" parent="1">
          <mxGeometry x="620" y="240" width="60" height="30" as="geometry" />
        </mxCell>
        <mxCell id="U7LoR9dBJlGIUiCqkhnB-34" value="" style="endArrow=classic;html=1;rounded=0;exitX=0;exitY=0.5;exitDx=0;exitDy=0;entryX=0.5;entryY=0;entryDx=0;entryDy=0;" edge="1" parent="1" source="U7LoR9dBJlGIUiCqkhnB-7" target="U7LoR9dBJlGIUiCqkhnB-12">
          <mxGeometry width="50" height="50" relative="1" as="geometry">
            <mxPoint x="20" y="380" as="sourcePoint" />
            <mxPoint x="70" y="330" as="targetPoint" />
            <Array as="points">
              <mxPoint x="55" y="380" />
            </Array>
          </mxGeometry>
        </mxCell>
        <mxCell id="U7LoR9dBJlGIUiCqkhnB-35" value="" style="endArrow=classic;html=1;rounded=0;exitX=1;exitY=0.5;exitDx=0;exitDy=0;entryX=0.677;entryY=0.029;entryDx=0;entryDy=0;entryPerimeter=0;" edge="1" parent="1" source="U7LoR9dBJlGIUiCqkhnB-7" target="U7LoR9dBJlGIUiCqkhnB-13">
          <mxGeometry width="50" height="50" relative="1" as="geometry">
            <mxPoint x="170" y="430" as="sourcePoint" />
            <mxPoint x="220" y="380" as="targetPoint" />
            <Array as="points">
              <mxPoint x="201" y="380" />
            </Array>
          </mxGeometry>
        </mxCell>
        <mxCell id="U7LoR9dBJlGIUiCqkhnB-36" value="Đúng" style="text;html=1;strokeColor=none;fillColor=none;align=center;verticalAlign=middle;whiteSpace=wrap;rounded=0;" vertex="1" parent="1">
          <mxGeometry y="400" width="60" height="30" as="geometry" />
        </mxCell>
        <mxCell id="U7LoR9dBJlGIUiCqkhnB-37" value="Sai" style="text;html=1;strokeColor=none;fillColor=none;align=center;verticalAlign=middle;whiteSpace=wrap;rounded=0;" vertex="1" parent="1">
          <mxGeometry x="155" y="400" width="60" height="30" as="geometry" />
        </mxCell>
        <mxCell id="U7LoR9dBJlGIUiCqkhnB-38" value="" style="endArrow=classic;html=1;rounded=0;exitX=0.5;exitY=1;exitDx=0;exitDy=0;entryX=0.5;entryY=0;entryDx=0;entryDy=0;" edge="1" parent="1" source="U7LoR9dBJlGIUiCqkhnB-12" target="U7LoR9dBJlGIUiCqkhnB-20">
          <mxGeometry width="50" height="50" relative="1" as="geometry">
            <mxPoint x="130" y="560" as="sourcePoint" />
            <mxPoint x="180" y="510" as="targetPoint" />
          </mxGeometry>
        </mxCell>
        <mxCell id="U7LoR9dBJlGIUiCqkhnB-39" value="" style="endArrow=classic;html=1;rounded=0;exitX=0;exitY=1;exitDx=0;exitDy=0;entryX=0.5;entryY=0;entryDx=0;entryDy=0;" edge="1" parent="1" source="U7LoR9dBJlGIUiCqkhnB-8" target="U7LoR9dBJlGIUiCqkhnB-14">
          <mxGeometry width="50" height="50" relative="1" as="geometry">
            <mxPoint x="320" y="470" as="sourcePoint" />
            <mxPoint x="370" y="420" as="targetPoint" />
            <Array as="points">
              <mxPoint x="245" y="395" />
            </Array>
          </mxGeometry>
        </mxCell>
        <mxCell id="U7LoR9dBJlGIUiCqkhnB-40" value="" style="endArrow=classic;html=1;rounded=0;exitX=1;exitY=1;exitDx=0;exitDy=0;entryX=0.679;entryY=-0.003;entryDx=0;entryDy=0;entryPerimeter=0;" edge="1" parent="1" source="U7LoR9dBJlGIUiCqkhnB-8" target="U7LoR9dBJlGIUiCqkhnB-15">
          <mxGeometry width="50" height="50" relative="1" as="geometry">
            <mxPoint x="320" y="520" as="sourcePoint" />
            <mxPoint x="370" y="470" as="targetPoint" />
            <Array as="points">
              <mxPoint x="380" y="395" />
            </Array>
          </mxGeometry>
        </mxCell>
        <mxCell id="U7LoR9dBJlGIUiCqkhnB-41" value="Đúng" style="text;html=1;strokeColor=none;fillColor=none;align=center;verticalAlign=middle;whiteSpace=wrap;rounded=0;" vertex="1" parent="1">
          <mxGeometry x="240" y="410" width="60" height="30" as="geometry" />
        </mxCell>
        <mxCell id="U7LoR9dBJlGIUiCqkhnB-42" value="Sai" style="text;html=1;strokeColor=none;fillColor=none;align=center;verticalAlign=middle;whiteSpace=wrap;rounded=0;" vertex="1" parent="1">
          <mxGeometry x="330" y="410" width="60" height="30" as="geometry" />
        </mxCell>
        <mxCell id="U7LoR9dBJlGIUiCqkhnB-43" value="" style="endArrow=classic;html=1;rounded=0;exitX=0.5;exitY=1;exitDx=0;exitDy=0;" edge="1" parent="1" source="U7LoR9dBJlGIUiCqkhnB-14" target="U7LoR9dBJlGIUiCqkhnB-21">
          <mxGeometry width="50" height="50" relative="1" as="geometry">
            <mxPoint x="290" y="630" as="sourcePoint" />
            <mxPoint x="340" y="580" as="targetPoint" />
          </mxGeometry>
        </mxCell>
        <mxCell id="U7LoR9dBJlGIUiCqkhnB-44" value="" style="endArrow=classic;html=1;rounded=0;entryX=0.5;entryY=0;entryDx=0;entryDy=0;" edge="1" parent="1" target="U7LoR9dBJlGIUiCqkhnB-16">
          <mxGeometry width="50" height="50" relative="1" as="geometry">
            <mxPoint x="500" y="400" as="sourcePoint" />
            <mxPoint x="460" y="400" as="targetPoint" />
            <Array as="points">
              <mxPoint x="465" y="400" />
            </Array>
          </mxGeometry>
        </mxCell>
        <mxCell id="U7LoR9dBJlGIUiCqkhnB-45" value="" style="endArrow=classic;html=1;rounded=0;exitX=0.694;exitY=0.847;exitDx=0;exitDy=0;exitPerimeter=0;entryX=0.5;entryY=0;entryDx=0;entryDy=0;" edge="1" parent="1" source="U7LoR9dBJlGIUiCqkhnB-9" target="U7LoR9dBJlGIUiCqkhnB-17">
          <mxGeometry width="50" height="50" relative="1" as="geometry">
            <mxPoint x="590" y="460" as="sourcePoint" />
            <mxPoint x="640" y="410" as="targetPoint" />
            <Array as="points">
              <mxPoint x="585" y="400" />
            </Array>
          </mxGeometry>
        </mxCell>
        <mxCell id="U7LoR9dBJlGIUiCqkhnB-46" value="Đúng" style="text;html=1;strokeColor=none;fillColor=none;align=center;verticalAlign=middle;whiteSpace=wrap;rounded=0;" vertex="1" parent="1">
          <mxGeometry x="460" y="410" width="60" height="30" as="geometry" />
        </mxCell>
        <mxCell id="U7LoR9dBJlGIUiCqkhnB-47" value="Sai" style="text;html=1;strokeColor=none;fillColor=none;align=center;verticalAlign=middle;whiteSpace=wrap;rounded=0;" vertex="1" parent="1">
          <mxGeometry x="530" y="410" width="60" height="30" as="geometry" />
        </mxCell>
        <mxCell id="U7LoR9dBJlGIUiCqkhnB-49" value="" style="endArrow=classic;html=1;rounded=0;exitX=0.5;exitY=1;exitDx=0;exitDy=0;entryX=0.5;entryY=0;entryDx=0;entryDy=0;" edge="1" parent="1" source="U7LoR9dBJlGIUiCqkhnB-16" target="U7LoR9dBJlGIUiCqkhnB-22">
          <mxGeometry width="50" height="50" relative="1" as="geometry">
            <mxPoint x="510" y="530" as="sourcePoint" />
            <mxPoint x="560" y="480" as="targetPoint" />
          </mxGeometry>
        </mxCell>
        <mxCell id="U7LoR9dBJlGIUiCqkhnB-50" value="" style="endArrow=classic;html=1;rounded=0;exitX=0;exitY=1;exitDx=0;exitDy=0;entryX=0.333;entryY=0;entryDx=0;entryDy=0;entryPerimeter=0;" edge="1" parent="1" source="U7LoR9dBJlGIUiCqkhnB-10" target="U7LoR9dBJlGIUiCqkhnB-18">
          <mxGeometry width="50" height="50" relative="1" as="geometry">
            <mxPoint x="710" y="480" as="sourcePoint" />
            <mxPoint x="670" y="510" as="targetPoint" />
            <Array as="points">
              <mxPoint x="660" y="395" />
            </Array>
          </mxGeometry>
        </mxCell>
        <mxCell id="U7LoR9dBJlGIUiCqkhnB-51" value="" style="endArrow=classic;html=1;rounded=0;exitX=1;exitY=1;exitDx=0;exitDy=0;entryX=0.75;entryY=0;entryDx=0;entryDy=0;" edge="1" parent="1" source="U7LoR9dBJlGIUiCqkhnB-10" target="U7LoR9dBJlGIUiCqkhnB-19">
          <mxGeometry width="50" height="50" relative="1" as="geometry">
            <mxPoint x="790" y="460" as="sourcePoint" />
            <mxPoint x="840" y="410" as="targetPoint" />
            <Array as="points">
              <mxPoint x="818" y="395" />
            </Array>
          </mxGeometry>
        </mxCell>
        <mxCell id="U7LoR9dBJlGIUiCqkhnB-52" value="Đúng" style="text;html=1;strokeColor=none;fillColor=none;align=center;verticalAlign=middle;whiteSpace=wrap;rounded=0;" vertex="1" parent="1">
          <mxGeometry x="660" y="410" width="60" height="30" as="geometry" />
        </mxCell>
        <mxCell id="U7LoR9dBJlGIUiCqkhnB-53" value="Sai" style="text;html=1;strokeColor=none;fillColor=none;align=center;verticalAlign=middle;whiteSpace=wrap;rounded=0;" vertex="1" parent="1">
          <mxGeometry x="765" y="410" width="60" height="30" as="geometry" />
        </mxCell>
        <mxCell id="U7LoR9dBJlGIUiCqkhnB-54" value="" style="endArrow=classic;html=1;rounded=0;exitX=0.5;exitY=1;exitDx=0;exitDy=0;entryX=0.5;entryY=0;entryDx=0;entryDy=0;" edge="1" parent="1" source="U7LoR9dBJlGIUiCqkhnB-18" target="U7LoR9dBJlGIUiCqkhnB-23">
          <mxGeometry width="50" height="50" relative="1" as="geometry">
            <mxPoint x="700" y="600" as="sourcePoint" />
            <mxPoint x="750" y="550" as="targetPoint" />
          </mxGeometry>
        </mxCell>
        <mxCell id="U7LoR9dBJlGIUiCqkhnB-55" value="" style="ellipse;whiteSpace=wrap;html=1;aspect=fixed;" vertex="1" parent="1">
          <mxGeometry x="410" y="730" width="40" height="40" as="geometry" />
        </mxCell>
        <mxCell id="U7LoR9dBJlGIUiCqkhnB-56" value="" style="endArrow=classic;html=1;rounded=0;exitX=0.5;exitY=1;exitDx=0;exitDy=0;entryX=0;entryY=0.5;entryDx=0;entryDy=0;" edge="1" parent="1" source="U7LoR9dBJlGIUiCqkhnB-20" target="U7LoR9dBJlGIUiCqkhnB-55">
          <mxGeometry width="50" height="50" relative="1" as="geometry">
            <mxPoint x="110" y="740" as="sourcePoint" />
            <mxPoint x="390" y="750" as="targetPoint" />
            <Array as="points">
              <mxPoint x="55" y="750" />
            </Array>
          </mxGeometry>
        </mxCell>
        <mxCell id="U7LoR9dBJlGIUiCqkhnB-57" value="" style="endArrow=classic;html=1;rounded=0;exitX=0.5;exitY=1;exitDx=0;exitDy=0;entryX=0.007;entryY=0.295;entryDx=0;entryDy=0;entryPerimeter=0;" edge="1" parent="1" source="U7LoR9dBJlGIUiCqkhnB-13" target="U7LoR9dBJlGIUiCqkhnB-55">
          <mxGeometry width="50" height="50" relative="1" as="geometry">
            <mxPoint x="140" y="720" as="sourcePoint" />
            <mxPoint x="190" y="670" as="targetPoint" />
            <Array as="points">
              <mxPoint x="185" y="740" />
            </Array>
          </mxGeometry>
        </mxCell>
        <mxCell id="U7LoR9dBJlGIUiCqkhnB-58" value="" style="endArrow=classic;html=1;rounded=0;exitX=0.5;exitY=1;exitDx=0;exitDy=0;entryX=0;entryY=0;entryDx=0;entryDy=0;" edge="1" parent="1" source="U7LoR9dBJlGIUiCqkhnB-21" target="U7LoR9dBJlGIUiCqkhnB-55">
          <mxGeometry width="50" height="50" relative="1" as="geometry">
            <mxPoint x="320" y="700" as="sourcePoint" />
            <mxPoint x="370" y="650" as="targetPoint" />
            <Array as="points">
              <mxPoint x="245" y="736" />
            </Array>
          </mxGeometry>
        </mxCell>
        <mxCell id="U7LoR9dBJlGIUiCqkhnB-59" value="" style="endArrow=classic;html=1;rounded=0;exitX=0.5;exitY=1;exitDx=0;exitDy=0;entryX=0.208;entryY=-0.029;entryDx=0;entryDy=0;entryPerimeter=0;" edge="1" parent="1" source="U7LoR9dBJlGIUiCqkhnB-15" target="U7LoR9dBJlGIUiCqkhnB-55">
          <mxGeometry width="50" height="50" relative="1" as="geometry">
            <mxPoint x="370" y="680" as="sourcePoint" />
            <mxPoint x="420" y="630" as="targetPoint" />
            <Array as="points">
              <mxPoint x="365" y="730" />
            </Array>
          </mxGeometry>
        </mxCell>
        <mxCell id="U7LoR9dBJlGIUiCqkhnB-60" value="" style="endArrow=classic;html=1;rounded=0;exitX=0.5;exitY=1;exitDx=0;exitDy=0;entryX=0.5;entryY=0;entryDx=0;entryDy=0;" edge="1" parent="1" source="U7LoR9dBJlGIUiCqkhnB-22" target="U7LoR9dBJlGIUiCqkhnB-55">
          <mxGeometry width="50" height="50" relative="1" as="geometry">
            <mxPoint x="530" y="740" as="sourcePoint" />
            <mxPoint x="580" y="690" as="targetPoint" />
            <Array as="points">
              <mxPoint x="465" y="680" />
              <mxPoint x="430" y="680" />
            </Array>
          </mxGeometry>
        </mxCell>
        <mxCell id="U7LoR9dBJlGIUiCqkhnB-61" value="" style="endArrow=classic;html=1;rounded=0;exitX=0.5;exitY=1;exitDx=0;exitDy=0;entryX=1;entryY=0;entryDx=0;entryDy=0;" edge="1" parent="1" source="U7LoR9dBJlGIUiCqkhnB-17" target="U7LoR9dBJlGIUiCqkhnB-55">
          <mxGeometry width="50" height="50" relative="1" as="geometry">
            <mxPoint x="560" y="700" as="sourcePoint" />
            <mxPoint x="610" y="650" as="targetPoint" />
            <Array as="points">
              <mxPoint x="585" y="736" />
            </Array>
          </mxGeometry>
        </mxCell>
        <mxCell id="U7LoR9dBJlGIUiCqkhnB-62" value="" style="endArrow=classic;html=1;rounded=0;exitX=0.5;exitY=1;exitDx=0;exitDy=0;entryX=1;entryY=0.5;entryDx=0;entryDy=0;" edge="1" parent="1" source="U7LoR9dBJlGIUiCqkhnB-23" target="U7LoR9dBJlGIUiCqkhnB-55">
          <mxGeometry width="50" height="50" relative="1" as="geometry">
            <mxPoint x="720" y="750" as="sourcePoint" />
            <mxPoint x="770" y="700" as="targetPoint" />
            <Array as="points">
              <mxPoint x="675" y="750" />
            </Array>
          </mxGeometry>
        </mxCell>
        <mxCell id="U7LoR9dBJlGIUiCqkhnB-63" value="" style="endArrow=classic;html=1;rounded=0;exitX=0.5;exitY=1;exitDx=0;exitDy=0;entryX=1.04;entryY=0.73;entryDx=0;entryDy=0;entryPerimeter=0;" edge="1" parent="1" source="U7LoR9dBJlGIUiCqkhnB-19" target="U7LoR9dBJlGIUiCqkhnB-55">
          <mxGeometry width="50" height="50" relative="1" as="geometry">
            <mxPoint x="710" y="740" as="sourcePoint" />
            <mxPoint x="760" y="690" as="targetPoint" />
            <Array as="points">
              <mxPoint x="795" y="759" />
            </Array>
          </mxGeometry>
        </mxCell>
        <mxCell id="U7LoR9dBJlGIUiCqkhnB-64" value="" style="endArrow=classic;html=1;rounded=0;exitX=0.5;exitY=1;exitDx=0;exitDy=0;entryX=0.5;entryY=0;entryDx=0;entryDy=0;" edge="1" parent="1" source="U7LoR9dBJlGIUiCqkhnB-55" target="U7LoR9dBJlGIUiCqkhnB-11">
          <mxGeometry width="50" height="50" relative="1" as="geometry">
            <mxPoint x="500" y="830" as="sourcePoint" />
            <mxPoint x="550" y="780" as="targetPoint" />
          </mxGeometry>
        </mxCell>
      </root>
    </mxGraphModel>
  </diagram>
</mxfile>
